<?xml version="1.0" encoding="us-ascii" standalone="no"?><svg xmlns="http://www.w3.org/2000/svg" xmlns:xlink="http://www.w3.org/1999/xlink" contentStyleType="text/css" height="753px" preserveAspectRatio="none" style="width:509px;height:753px;background:#FFFFFF;" version="1.1" viewBox="0 0 509 753" width="509px" zoomAndPan="magnify"><defs/><g><text fill="#000000" font-family="sans-serif" font-size="14" font-weight="bold" lengthAdjust="spacing" textLength="241" x="127.0839" y="24.5332">Vue de d&#233;ploiement - Architecture</text><!--cluster Local--><g id="cluster_Local"><rect fill="none" height="702" rx="7.5" ry="7.5" style="stroke:#555555;stroke-width:1.0;" width="354" x="7" y="45.6094"/><text fill="#000000" font-family="sans-serif" font-size="14" font-weight="bold" lengthAdjust="spacing" textLength="232" x="68" y="62.1426">Machine locale (D&#233;veloppement)</text></g><!--cluster Chrome--><g id="cluster_Chrome"><polygon fill="none" points="60,99.6094,70,89.6094,332,89.6094,332,244.6094,322,254.6094,60,254.6094,60,99.6094" style="stroke:#555555;stroke-width:1.0;"/><line style="stroke:#555555;stroke-width:1.0;" x1="322" x2="332" y1="99.6094" y2="89.6094"/><line style="stroke:#555555;stroke-width:1.0;" x1="60" x2="322" y1="99.6094" y2="99.6094"/><line style="stroke:#555555;stroke-width:1.0;" x1="322" x2="322" y1="99.6094" y2="254.6094"/><text fill="#000000" font-family="sans-serif" font-size="14" font-weight="bold" lengthAdjust="spacing" textLength="110" x="137" y="117.1426">Google Chrome</text></g><!--cluster DCE--><g id="cluster_DCE"><rect fill="none" height="419" rx="7.5" ry="7.5" style="stroke:#555555;stroke-width:1.0;" width="306" x="31" y="304.6094"/><text fill="#000000" font-family="sans-serif" font-size="14" font-weight="bold" lengthAdjust="spacing" textLength="214" x="77" y="321.1426">Docker Compose Environment</text></g><!--entity Ext--><g id="elem_Ext"><rect fill="#F1F1F1" height="108.0469" rx="2.5" ry="2.5" style="stroke:#181818;stroke-width:0.5;" width="239" x="76.5" y="130.6094"/><text fill="#000000" font-family="sans-serif" font-size="14" font-style="italic" lengthAdjust="spacing" textLength="76" x="158" y="155.1426">&#171;extension&#187;</text><text fill="#000000" font-family="sans-serif" font-size="14" lengthAdjust="spacing" textLength="168" x="86.5" y="172.752">Extension GHA Dashboard</text><text fill="#000000" font-family="sans-serif" font-size="14" lengthAdjust="spacing" textLength="141" x="86.5" y="190.3613">- popup.html, popup.js</text><text fill="#000000" font-family="sans-serif" font-size="14" lengthAdjust="spacing" textLength="219" x="86.5" y="207.9707">- contentScript.js (injection GitHub)</text><text fill="#000000" font-family="sans-serif" font-size="14" lengthAdjust="spacing" textLength="98" x="86.5" y="225.5801">- background.js</text></g><!--entity Flask--><g id="elem_Flask"><polygon fill="#F1F1F1" points="84,350.6094,94,340.6094,308,340.6094,308,483.875,298,493.875,84,493.875,84,350.6094" style="stroke:#555555;stroke-width:0.5;"/><line style="stroke:#555555;stroke-width:0.5;" x1="298" x2="308" y1="350.6094" y2="340.6094"/><line style="stroke:#555555;stroke-width:0.5;" x1="84" x2="298" y1="350.6094" y2="350.6094"/><line style="stroke:#555555;stroke-width:0.5;" x1="298" x2="298" y1="350.6094" y2="493.875"/><text fill="#000000" font-family="sans-serif" font-size="14" lengthAdjust="spacing" textLength="79" x="99" y="375.1426">flask-service</text><text fill="#000000" font-family="sans-serif" font-size="14" lengthAdjust="spacing" textLength="75" x="99" y="392.752">&#171;container&#187;</text><text fill="#000000" font-family="sans-serif" font-size="14" lengthAdjust="spacing" textLength="154" x="99" y="410.3613">Image : python:3.10-slim</text><text fill="#000000" font-family="sans-serif" font-size="14" lengthAdjust="spacing" textLength="70" x="99" y="427.9707">Port : 5000</text><text fill="#000000" font-family="sans-serif" font-size="14" lengthAdjust="spacing" textLength="55" x="99" y="445.5801">Service :</text><text fill="#000000" font-family="sans-serif" font-size="14" lengthAdjust="spacing" textLength="184" x="99" y="463.1895">- API d'extraction (GHAminer)</text><text fill="#000000" font-family="sans-serif" font-size="14" lengthAdjust="spacing" textLength="163" x="99" y="480.7988">- API REST pour l'analyse</text></g><!--entity Pg--><g id="elem_Pg"><polygon fill="#F1F1F1" points="47,581.6094,57,571.6094,321,571.6094,321,697.2656,311,707.2656,47,707.2656,47,581.6094" style="stroke:#555555;stroke-width:0.5;"/><line style="stroke:#555555;stroke-width:0.5;" x1="311" x2="321" y1="581.6094" y2="571.6094"/><line style="stroke:#555555;stroke-width:0.5;" x1="47" x2="311" y1="581.6094" y2="581.6094"/><line style="stroke:#555555;stroke-width:0.5;" x1="311" x2="311" y1="581.6094" y2="707.2656"/><text fill="#000000" font-family="sans-serif" font-size="14" lengthAdjust="spacing" textLength="55" x="62" y="606.1426">postgres</text><text fill="#000000" font-family="sans-serif" font-size="14" lengthAdjust="spacing" textLength="75" x="62" y="623.752">&#171;container&#187;</text><text fill="#000000" font-family="sans-serif" font-size="14" lengthAdjust="spacing" textLength="168" x="62" y="641.3613">Image : postgres:15-alpine</text><text fill="#000000" font-family="sans-serif" font-size="14" lengthAdjust="spacing" textLength="70" x="62" y="658.9707">Port : 5432</text><text fill="#000000" font-family="sans-serif" font-size="14" lengthAdjust="spacing" textLength="234" x="62" y="676.5801">Volume : postgres-data (persistance)</text><text fill="#000000" font-family="sans-serif" font-size="14" lengthAdjust="spacing" textLength="211" x="62" y="694.1895">Service : Stockage des m&#233;triques</text></g><!--entity GH--><g id="elem_GH"><path d="M386.3688,615.9433 C389.5166,609.6753 395.0667,608.3454 399.7726,614.2239 C402.4196,608.4159 407.2261,606.4147 412.182,611.6231 C414.5673,604.1186 421.2078,602.3414 426.37,608.8018 C429.8274,601.7065 433.9231,601.4065 438.8728,607.3734 C443.2442,601.6141 448.2484,601.7657 451.3494,608.6291 C456.7917,602.5268 464.6141,602.9281 466.5811,612.0956 C470.9247,607.5353 475.4174,608.7263 478.0728,614.057 C482.6337,606.2736 489.595,607.1116 492.8245,615.2876 C500.492,617.4204 500.2586,623.7741 495.1939,628.2367 C501.8641,630.9479 502.1679,635.8937 496.967,640.3435 C501.8619,645.0726 500.3115,649.3177 494.8302,652.1726 C500.2416,658.1731 499.5642,662.143 491.5896,664.6733 C489.2142,671.3529 483.7024,672.1204 478.8159,667.516 C475.7303,675.8011 471.5534,676.6558 465.2852,670.4974 C461.257,677.2196 455.9875,677.094 451.2699,671.2674 C448.0356,678.6065 443.341,678.9516 438.3188,673.011 C434.1253,678.8651 428.3044,677.0669 425.6637,671.3175 C421.094,677.948 416.5818,677.0768 412.9652,670.4075 C406.8442,676.5062 401.2055,674.9898 398.5309,666.901 C394.1181,671.2909 389.6441,670.7755 386.7306,665.1368 C378.7391,662.5144 378.5273,657.9262 383.552,652.1244 C377.1384,650.0257 377.6118,644.7913 381.8831,641.0783 C376.024,636.6893 377.7157,632.0718 383.1759,628.8828 C378.596,624.1589 380.1293,617.9975 386.3688,615.9433 " fill="#F1F1F1" style="stroke:#555555;stroke-width:0.5;"/><text fill="#000000" font-family="sans-serif" font-size="14" lengthAdjust="spacing" textLength="68" x="392" y="636.6426">GitHub API</text><text fill="#000000" font-family="sans-serif" font-size="14" lengthAdjust="spacing" textLength="92" x="392" y="654.252">api.github.com</text></g><!--link Ext to Flask--><g id="link_Ext_Flask"><path d="M196,238.7794 C196,268.9594 196,301.2394 196,334.4994 " fill="none" id="Ext-to-Flask" style="stroke:#181818;stroke-width:1.0;"/><polygon fill="#181818" points="196,340.4994,200,331.4994,196,335.4994,192,331.4994,196,340.4994" style="stroke:#181818;stroke-width:1.0;"/><text fill="#000000" font-family="sans-serif" font-size="13" lengthAdjust="spacing" textLength="110" x="197" y="285.1045">HTTP REST : 5000</text></g><!--link Flask to Pg--><g id="link_Flask_Pg"><path d="M191.89,493.6894 C190.52,518.8694 189.325,540.7482 187.995,565.2682 " fill="none" id="Flask-to-Pg" style="stroke:#181818;stroke-width:1.0;"/><polygon fill="#181818" points="187.67,571.2594,192.1516,562.4892,187.9408,566.2667,184.1633,562.0559,187.67,571.2594" style="stroke:#181818;stroke-width:1.0;"/><text fill="#000000" font-family="sans-serif" font-size="13" lengthAdjust="spacing" textLength="111" x="191" y="538.1045">PostgreSQL : 5432</text></g><!--link Flask to GH--><g id="link_Flask_GH"><path d="M278.94,493.6894 C321.5,532.4594 366.6051,573.5581 398.9451,603.0281 " fill="none" id="Flask-to-GH" style="stroke:#181818;stroke-width:1.0;"/><polygon fill="#181818" points="403.38,607.0694,399.4219,598.0509,399.6843,603.7016,394.0335,603.964,403.38,607.0694" style="stroke:#181818;stroke-width:1.0;"/><text fill="#000000" font-family="sans-serif" font-size="13" lengthAdjust="spacing" textLength="110" x="332" y="538.1045">HTTPS API GitHub</text></g><!--SRC=[dPEnRjim48PtFSN17M83bUiqzM8O1bBRjGEaW1i7cRJG4YCpfkvOaaeR57aWeu_GBNcn7aKx4J9qAA11kljv_FwVb5TUIxYf9HJyFE-D9YKhYHvIEBVvLdcP-zhA974xXKPOKO7RYe9-A2pXLcWdMntBOe4bJ_oL05nHZSMKB4eBfqCkV2PRI3ibJHRU3OV3vB6r5gdudsMvfhferlrJPaI-4wLS-mU6Uy5ipw7A4BBnjvBarLJdg-14K8AcNF1tT_QylvUQZ6aYwtL0EBWCFGPYeiPIPq4K5a-tbYhPIE9h0msl6qDd_jDBT8eG5ijpc0cttP2mHOOf63ArwMzzfTyVtkzSgEU4Fa3dLXdFDUWgl6FWPeZoothJ2x8Dsozj29Or3GFl1UEnFEuucJ3COu0-90MT6UKxFe9fu7CIvdYlB64msWoOJUVHvT7dhHPkbpffxrKkCtpw7TW4nsMV_cHuKOMX8p0FVaiuEkkV3bAdLPNXYgpdnd0m66IuZijX5AZFLnTGd32Z5T5HbtEfmiJUiNqrNrzp8BK5VI9Gw0SN8_uIO5fmRC6NLd9cu_4BrsJIuZe8HgV3L6Z3xLUoJsSVCxmXNLTjPLe8Bw1hf7NAyGt9PQ_53sjFCSX2EgYUzzwgxxMCuQ_A9ctEErxVJZogu2X3OLI_L7vRR_fyDnhzOfaa9v2cALmgeHoXWm_CORqBnIISPSg_9AQJQ9otNrvVhs8wCTeaDewoLSdrLNIo_dPvSFb6j5WU1gsRh2DayXS0]--></g></svg>